<mxfile host="app.diagrams.net" modified="2021-09-13T08:35:55.323Z" agent="5.0 (Windows NT 6.1; Win64; x64) AppleWebKit/537.36 (KHTML, like Gecko) Chrome/92.0.4515.159 Safari/537.36" etag="-GLHmCa1kActWf3O5F9l" version="15.0.6" type="github">
  <diagram name="Page-1" id="52a04d89-c75d-2922-d76d-85b35f80e030">
    <mxGraphModel dx="1422" dy="705" grid="1" gridSize="10" guides="1" tooltips="1" connect="1" arrows="1" fold="1" page="1" pageScale="1" pageWidth="1100" pageHeight="850" background="none" math="0" shadow="0">
      <root>
        <mxCell id="0" />
        <mxCell id="1" parent="0" />
        <mxCell id="-y61v7st2WPRI6r0obGL-35" style="edgeStyle=orthogonalEdgeStyle;rounded=0;orthogonalLoop=1;jettySize=auto;html=1;exitX=1;exitY=0.5;exitDx=0;exitDy=0;" edge="1" parent="1" source="-y61v7st2WPRI6r0obGL-3" target="-y61v7st2WPRI6r0obGL-16">
          <mxGeometry relative="1" as="geometry" />
        </mxCell>
        <mxCell id="-y61v7st2WPRI6r0obGL-3" value="" style="shape=ellipse;html=1;fillColor=#FF8000;fontSize=18;fontColor=#ffffff;strokeColor=#0000CC;align=center;" vertex="1" parent="1">
          <mxGeometry x="10" y="330" width="40" height="40" as="geometry" />
        </mxCell>
        <mxCell id="-y61v7st2WPRI6r0obGL-4" style="edgeStyle=orthogonalEdgeStyle;rounded=0;html=1;labelBackgroundColor=none;endArrow=open;endFill=0;endSize=12;strokeColor=#FF8000;fontSize=11;fontColor=#0000CC;align=right;" edge="1" parent="1" target="-y61v7st2WPRI6r0obGL-25">
          <mxGeometry relative="1" as="geometry">
            <mxPoint x="770" y="455" as="sourcePoint" />
          </mxGeometry>
        </mxCell>
        <mxCell id="-y61v7st2WPRI6r0obGL-5" value="LogOut" style="text;html=1;resizable=0;points=[];align=center;verticalAlign=middle;labelBackgroundColor=#ffffff;fontSize=11;fontColor=#0000CC;" vertex="1" connectable="0" parent="-y61v7st2WPRI6r0obGL-4">
          <mxGeometry x="-0.2903" y="1" relative="1" as="geometry">
            <mxPoint as="offset" />
          </mxGeometry>
        </mxCell>
        <mxCell id="-y61v7st2WPRI6r0obGL-25" value="" style="shape=mxgraph.sysml.actFinal;html=1;verticalLabelPosition=bottom;labelBackgroundColor=#ffffff;verticalAlign=top;strokeColor=#FF8000;fillColor=#FFFFFF;fontSize=11;fontColor=#0000CC;align=center;" vertex="1" parent="1">
          <mxGeometry x="840" y="225" width="40" height="40" as="geometry" />
        </mxCell>
        <mxCell id="-y61v7st2WPRI6r0obGL-33" style="edgeStyle=orthogonalEdgeStyle;rounded=0;orthogonalLoop=1;jettySize=auto;html=1;exitX=1;exitY=0.5;exitDx=0;exitDy=0;entryX=0;entryY=0.5;entryDx=0;entryDy=0;" edge="1" parent="1" source="-y61v7st2WPRI6r0obGL-16" target="-y61v7st2WPRI6r0obGL-9">
          <mxGeometry relative="1" as="geometry" />
        </mxCell>
        <mxCell id="-y61v7st2WPRI6r0obGL-64" style="edgeStyle=orthogonalEdgeStyle;rounded=0;orthogonalLoop=1;jettySize=auto;html=1;exitX=0.5;exitY=1;exitDx=0;exitDy=0;entryX=0;entryY=0.5;entryDx=0;entryDy=0;" edge="1" parent="1" source="-y61v7st2WPRI6r0obGL-16" target="-y61v7st2WPRI6r0obGL-29">
          <mxGeometry relative="1" as="geometry" />
        </mxCell>
        <mxCell id="-y61v7st2WPRI6r0obGL-16" value="" style="shape=rhombus;html=1;labelPosition=right;align=left;verticalAlign=middle;strokeColor=#0000CC;fillColor=#FF9933;fontColor=#000000;" vertex="1" parent="1">
          <mxGeometry x="150" y="330" width="40" height="40" as="geometry" />
        </mxCell>
        <mxCell id="-y61v7st2WPRI6r0obGL-45" style="edgeStyle=orthogonalEdgeStyle;rounded=0;orthogonalLoop=1;jettySize=auto;html=1;exitX=1;exitY=0.5;exitDx=0;exitDy=0;entryX=0;entryY=0.5;entryDx=0;entryDy=0;" edge="1" parent="1" source="-y61v7st2WPRI6r0obGL-9" target="-y61v7st2WPRI6r0obGL-44">
          <mxGeometry relative="1" as="geometry" />
        </mxCell>
        <mxCell id="-y61v7st2WPRI6r0obGL-9" value="Log In" style="strokeColor=#0000CC;fillColor=inherit;gradientColor=inherit;shape=rect;html=1;rounded=1;whiteSpace=wrap;align=center;fontColor=#0000CC;" vertex="1" parent="1">
          <mxGeometry x="240" y="330" width="70" height="40" as="geometry" />
        </mxCell>
        <mxCell id="-y61v7st2WPRI6r0obGL-49" style="edgeStyle=orthogonalEdgeStyle;rounded=0;orthogonalLoop=1;jettySize=auto;html=1;exitX=1;exitY=0.5;exitDx=0;exitDy=0;entryX=0;entryY=0.5;entryDx=0;entryDy=0;" edge="1" parent="1" source="-y61v7st2WPRI6r0obGL-29" target="-y61v7st2WPRI6r0obGL-48">
          <mxGeometry relative="1" as="geometry" />
        </mxCell>
        <mxCell id="-y61v7st2WPRI6r0obGL-29" value="Register" style="strokeColor=#0000CC;fillColor=inherit;gradientColor=inherit;shape=rect;html=1;rounded=1;whiteSpace=wrap;align=center;fontColor=#0000CC;" vertex="1" parent="1">
          <mxGeometry x="240" y="410" width="70" height="40" as="geometry" />
        </mxCell>
        <mxCell id="-y61v7st2WPRI6r0obGL-36" value="Existing user ?" style="text;html=1;strokeColor=none;fillColor=none;align=center;verticalAlign=middle;whiteSpace=wrap;rounded=0;" vertex="1" parent="1">
          <mxGeometry x="50" y="330" width="100" height="20" as="geometry" />
        </mxCell>
        <mxCell id="-y61v7st2WPRI6r0obGL-42" value="Yes" style="text;html=1;strokeColor=none;fillColor=none;align=center;verticalAlign=middle;whiteSpace=wrap;rounded=0;" vertex="1" parent="1">
          <mxGeometry x="160" y="330" width="100" height="20" as="geometry" />
        </mxCell>
        <mxCell id="-y61v7st2WPRI6r0obGL-43" value="No" style="text;html=1;strokeColor=none;fillColor=none;align=center;verticalAlign=middle;whiteSpace=wrap;rounded=0;" vertex="1" parent="1">
          <mxGeometry x="160" y="410" width="100" height="20" as="geometry" />
        </mxCell>
        <mxCell id="-y61v7st2WPRI6r0obGL-47" style="edgeStyle=orthogonalEdgeStyle;rounded=0;orthogonalLoop=1;jettySize=auto;html=1;exitX=0.5;exitY=0;exitDx=0;exitDy=0;entryX=0.5;entryY=0;entryDx=0;entryDy=0;" edge="1" parent="1" source="-y61v7st2WPRI6r0obGL-44" target="-y61v7st2WPRI6r0obGL-9">
          <mxGeometry relative="1" as="geometry" />
        </mxCell>
        <mxCell id="-y61v7st2WPRI6r0obGL-66" style="edgeStyle=orthogonalEdgeStyle;rounded=0;orthogonalLoop=1;jettySize=auto;html=1;exitX=1;exitY=0.5;exitDx=0;exitDy=0;entryX=0.285;entryY=1;entryDx=0;entryDy=0;entryPerimeter=0;" edge="1" parent="1" source="-y61v7st2WPRI6r0obGL-44" target="-y61v7st2WPRI6r0obGL-65">
          <mxGeometry relative="1" as="geometry" />
        </mxCell>
        <mxCell id="-y61v7st2WPRI6r0obGL-44" value="" style="shape=rhombus;html=1;labelPosition=right;align=left;verticalAlign=middle;strokeColor=#0000CC;fillColor=#FF9933;fontColor=#000000;" vertex="1" parent="1">
          <mxGeometry x="380" y="330" width="40" height="40" as="geometry" />
        </mxCell>
        <mxCell id="-y61v7st2WPRI6r0obGL-50" style="edgeStyle=orthogonalEdgeStyle;rounded=0;orthogonalLoop=1;jettySize=auto;html=1;exitX=0.5;exitY=1;exitDx=0;exitDy=0;entryX=0.5;entryY=1;entryDx=0;entryDy=0;" edge="1" parent="1" source="-y61v7st2WPRI6r0obGL-48" target="-y61v7st2WPRI6r0obGL-29">
          <mxGeometry relative="1" as="geometry" />
        </mxCell>
        <mxCell id="-y61v7st2WPRI6r0obGL-68" style="edgeStyle=orthogonalEdgeStyle;rounded=0;orthogonalLoop=1;jettySize=auto;html=1;exitX=1;exitY=0.5;exitDx=0;exitDy=0;entryX=0.715;entryY=0.875;entryDx=0;entryDy=0;entryPerimeter=0;" edge="1" parent="1" source="-y61v7st2WPRI6r0obGL-48" target="-y61v7st2WPRI6r0obGL-65">
          <mxGeometry relative="1" as="geometry" />
        </mxCell>
        <mxCell id="-y61v7st2WPRI6r0obGL-48" value="" style="shape=rhombus;html=1;labelPosition=right;align=left;verticalAlign=middle;strokeColor=#0000CC;fillColor=#FF9933;fontColor=#000000;" vertex="1" parent="1">
          <mxGeometry x="380" y="410" width="40" height="40" as="geometry" />
        </mxCell>
        <mxCell id="-y61v7st2WPRI6r0obGL-52" value="Success?" style="text;html=1;strokeColor=none;fillColor=none;align=center;verticalAlign=middle;whiteSpace=wrap;rounded=0;" vertex="1" parent="1">
          <mxGeometry x="300" y="330" width="100" height="20" as="geometry" />
        </mxCell>
        <mxCell id="-y61v7st2WPRI6r0obGL-54" value="Success?" style="text;html=1;strokeColor=none;fillColor=none;align=center;verticalAlign=middle;whiteSpace=wrap;rounded=0;" vertex="1" parent="1">
          <mxGeometry x="300" y="410" width="100" height="20" as="geometry" />
        </mxCell>
        <mxCell id="-y61v7st2WPRI6r0obGL-55" value="No" style="text;html=1;strokeColor=none;fillColor=none;align=center;verticalAlign=middle;whiteSpace=wrap;rounded=0;" vertex="1" parent="1">
          <mxGeometry x="300" y="469" width="100" height="20" as="geometry" />
        </mxCell>
        <mxCell id="-y61v7st2WPRI6r0obGL-56" value="No" style="text;html=1;strokeColor=none;fillColor=none;align=center;verticalAlign=middle;whiteSpace=wrap;rounded=0;" vertex="1" parent="1">
          <mxGeometry x="300" y="290" width="100" height="20" as="geometry" />
        </mxCell>
        <mxCell id="-y61v7st2WPRI6r0obGL-65" value="" style="line;strokeWidth=1;fillColor=none;align=left;verticalAlign=middle;spacingTop=-1;spacingLeft=3;spacingRight=3;rotatable=0;labelPosition=right;points=[];portConstraint=eastwest;" vertex="1" parent="1">
          <mxGeometry x="440" y="290" width="130" height="8" as="geometry" />
        </mxCell>
        <mxCell id="-y61v7st2WPRI6r0obGL-69" value="START ORDER" style="strokeColor=#0000CC;fillColor=inherit;gradientColor=inherit;shape=rect;html=1;rounded=1;whiteSpace=wrap;align=center;fontColor=#0000CC;" vertex="1" parent="1">
          <mxGeometry x="470" y="210" width="70" height="40" as="geometry" />
        </mxCell>
        <mxCell id="-y61v7st2WPRI6r0obGL-71" value="" style="endArrow=classic;html=1;" edge="1" parent="1">
          <mxGeometry width="50" height="50" relative="1" as="geometry">
            <mxPoint x="504.5" y="290" as="sourcePoint" />
            <mxPoint x="504.5" y="250" as="targetPoint" />
          </mxGeometry>
        </mxCell>
      </root>
    </mxGraphModel>
  </diagram>
</mxfile>
